<svg xmlns="http://www.w3.org/2000/svg" width="208.753" height="95.946" viewBox="0 0 208.753 95.946">
  <g id="グループ_13" data-name="グループ 13" transform="translate(-83.624 -1418.756)">
    <g id="グループ_27" data-name="グループ 27" transform="translate(-11.376 -5.689)">
      <path id="多角形_9" data-name="多角形 9" d="M8.97,1.391a3,3,0,0,1,3.642,0L19.92,6.973a3,3,0,0,1,1.045,3.27l-2.851,9.225a3,3,0,0,1-2.866,2.114H6.335a3,3,0,0,1-2.866-2.114L.618,10.243a3,3,0,0,1,1.045-3.27Z" transform="translate(95 1497.885)" fill="#c1c1c1"/>
      <path id="多角形_10" data-name="多角形 10" d="M15.213,0a3,3,0,0,1,2.6,1.5L21.717,8.24a3,3,0,0,1,0,3.009l-3.909,6.744a3,3,0,0,1-2.6,1.5H7.376a3,3,0,0,1-2.6-1.5L.872,11.248a3,3,0,0,1,0-3.009L4.78,1.5A3,3,0,0,1,7.376,0Z" transform="translate(169.474 1499.013)" fill="#c1c1c1"/>
      <path id="多角形_11" data-name="多角形 11" d="M11.43,1.882a1,1,0,0,1,1.8,0L15.86,7.364a1,1,0,0,0,.766.559l6,.825a1,1,0,0,1,.558,1.71L18.8,14.687a1,1,0,0,0-.29.9l1.076,6.009a1,1,0,0,1-1.46,1.056l-5.32-2.877a1,1,0,0,0-.952,0l-5.32,2.877a1,1,0,0,1-1.46-1.056l1.076-6.009a1,1,0,0,0-.29-.9l-4.381-4.23a1,1,0,0,1,.558-1.71l6-.825A1,1,0,0,0,8.8,7.364Z" transform="translate(245.076 1496.756)" fill="#c1c1c1"/>
      <text id="_" data-name="→ … →" transform="translate(124.753 1513.446)" fill="#202226" font-size="11" font-family="LucidaGrande-Bold, Lucida Grande" font-weight="700"><tspan x="0" y="0">→</tspan><tspan y="0" xml:space="preserve" font-family="'Exo \32 '"> … </tspan><tspan y="0">→</tspan></text>
      <text id="_2" data-name="→ … →" transform="translate(199.753 1513.446)" fill="#202226" font-size="11" font-family="LucidaGrande-Bold, Lucida Grande" font-weight="700"><tspan x="0" y="0">→</tspan><tspan y="0" xml:space="preserve" font-family="'Exo \32 '"> … </tspan><tspan y="0">→</tspan></text>
      <text id="_3" data-name="→ … " transform="translate(277.753 1513.446)" fill="#202226" font-size="11" font-family="LucidaGrande-Bold, Lucida Grande" font-weight="700"><tspan x="0" y="0">→</tspan><tspan y="0" xml:space="preserve" font-family="'Exo \32 '"> … </tspan></text>
    </g>
    <g id="グループ_26" data-name="グループ 26" transform="translate(-22.764 -1)">
      <g id="グループ_14" data-name="グループ 14" transform="translate(114.127 1419.756)">
        <path id="多角形_12" data-name="多角形 12" d="M10.543,1.391a3,3,0,0,1,3.642,0l8.88,6.784a3,3,0,0,1,1.045,3.27L20.659,22.613a3,3,0,0,1-2.866,2.114H6.936a3,3,0,0,1-2.866-2.114L.618,11.444a3,3,0,0,1,1.045-3.27Z" transform="translate(1.293 1.293)" fill="#c1c1c1"/>
        <text id="い" transform="translate(13.757 18.757)" fill="#202226" font-size="12" font-family="HiraginoSans-W6, Hiragino Sans"><tspan x="-6" y="0">い</tspan></text>
      </g>
      <g id="グループ_15" data-name="グループ 15" transform="translate(146.93 1419.756)">
        <path id="多角形_12-2" data-name="多角形 12" d="M10.543,1.391a3,3,0,0,1,3.642,0l8.88,6.784a3,3,0,0,1,1.045,3.27L20.659,22.613a3,3,0,0,1-2.866,2.114H6.936a3,3,0,0,1-2.866-2.114L.618,11.444a3,3,0,0,1,1.045-3.27Z" transform="translate(1.293 1.293)" fill="#f4db68"/>
        <text id="じ" transform="translate(13.757 18.757)" fill="#202226" font-size="12" font-family="HiraginoSans-W6, Hiragino Sans"><tspan x="-6" y="0">じ</tspan></text>
      </g>
      <g id="グループ_16" data-name="グループ 16" transform="translate(179.734 1419.756)">
        <path id="多角形_13" data-name="多角形 13" d="M17.682,0a3,3,0,0,1,2.6,1.5L25.009,9.66a3,3,0,0,1,0,3.009l-4.732,8.164a3,3,0,0,1-2.6,1.5H8.2a3,3,0,0,1-2.6-1.5L.872,12.669a3,3,0,0,1,0-3.009L5.6,1.5A3,3,0,0,1,8.2,0Z" transform="translate(1.293 2.586)" fill="#f0dc79"/>
        <text id="た" transform="translate(13.757 18.757)" fill="#202226" font-size="12" font-family="HiraginoSans-W6, Hiragino Sans"><tspan x="-6" y="0">た</tspan></text>
      </g>
      <g id="グループ_17" data-name="グループ 17" transform="translate(212.537 1419.756)">
        <path id="多角形_14" data-name="多角形 14" d="M13.227,1.882a1,1,0,0,1,1.8,0l3.175,6.626a1,1,0,0,0,.766.559l7.247,1a1,1,0,0,1,.558,1.71l-5.292,5.109a1,1,0,0,0-.29.9l1.3,7.259a1,1,0,0,1-1.46,1.056L14.6,22.614a1,1,0,0,0-.952,0l-6.43,3.478a1,1,0,0,1-1.46-1.056l1.3-7.259a1,1,0,0,0-.29-.9L1.481,11.773a1,1,0,0,1,.558-1.71l7.247-1a1,1,0,0,0,.766-.559Z" transform="translate(0)" fill="#dd7840"/>
        <text id="は" transform="translate(13.757 18.757)" fill="#202226" font-size="12" font-family="HiraginoSans-W6, Hiragino Sans"><tspan x="-6" y="0">は</tspan></text>
      </g>
      <g id="グループ_18" data-name="グループ 18" transform="translate(114.127 1449.422)">
        <path id="多角形_14-2" data-name="多角形 14" d="M13.227,1.882a1,1,0,0,1,1.8,0l3.175,6.626a1,1,0,0,0,.766.559l7.247,1a1,1,0,0,1,.558,1.71l-5.292,5.109a1,1,0,0,0-.29.9l1.3,7.259a1,1,0,0,1-1.46,1.056L14.6,22.614a1,1,0,0,0-.952,0l-6.43,3.478a1,1,0,0,1-1.46-1.056l1.3-7.259a1,1,0,0,0-.29-.9L1.481,11.773a1,1,0,0,1,.558-1.71l7.247-1a1,1,0,0,0,.766-.559Z" fill="#d07d4c"/>
        <text id="ん" transform="translate(13.757 18.757)" fill="#202226" font-size="12" font-family="HiraginoSans-W6, Hiragino Sans"><tspan x="-6" y="0">ん</tspan></text>
      </g>
      <g id="グループ_19" data-name="グループ 19" transform="translate(146.93 1449.422)">
        <path id="多角形_13-2" data-name="多角形 13" d="M17.682,0a3,3,0,0,1,2.6,1.5L25.009,9.66a3,3,0,0,1,0,3.009l-4.732,8.164a3,3,0,0,1-2.6,1.5H8.2a3,3,0,0,1-2.6-1.5L.872,12.669a3,3,0,0,1,0-3.009L5.6,1.5A3,3,0,0,1,8.2,0Z" transform="translate(1.293 2.586)" fill="#5c7dd3"/>
        <text id="か" transform="translate(13.757 18.757)" fill="#202226" font-size="12" font-family="HiraginoSans-W6, Hiragino Sans"><tspan x="-6" y="0">か</tspan></text>
      </g>
      <g id="グループ_20" data-name="グループ 20" transform="translate(179.734 1449.422)">
        <path id="多角形_14-3" data-name="多角形 14" d="M13.227,1.882a1,1,0,0,1,1.8,0l3.175,6.626a1,1,0,0,0,.766.559l7.247,1a1,1,0,0,1,.558,1.71l-5.292,5.109a1,1,0,0,0-.29.9l1.3,7.259a1,1,0,0,1-1.46,1.056L14.6,22.614a1,1,0,0,0-.952,0l-6.43,3.478a1,1,0,0,1-1.46-1.056l1.3-7.259a1,1,0,0,0-.29-.9L1.481,11.773a1,1,0,0,1,.558-1.71l7.247-1a1,1,0,0,0,.766-.559Z" fill="#c1c1c1"/>
        <text id="さ" transform="translate(13.757 18.757)" fill="#202226" font-size="12" font-family="HiraginoSans-W6, Hiragino Sans"><tspan x="-6" y="0">さ</tspan></text>
      </g>
      <g id="グループ_21" data-name="グループ 21" transform="translate(212.537 1449.422)">
        <path id="多角形_12-3" data-name="多角形 12" d="M10.543,1.391a3,3,0,0,1,3.642,0l8.88,6.784a3,3,0,0,1,1.045,3.27L20.659,22.613a3,3,0,0,1-2.866,2.114H6.936a3,3,0,0,1-2.866-2.114L.618,11.444a3,3,0,0,1,1.045-3.27Z" transform="translate(1.293 1.293)" fill="#5c7dd3"/>
        <text id="ち" transform="translate(13.757 18.757)" fill="#202226" font-size="12" font-family="HiraginoSans-W6, Hiragino Sans"><tspan x="-6" y="0">ち</tspan></text>
      </g>
      <g id="グループ_22" data-name="グループ 22" transform="translate(245.341 1449.422)">
        <path id="多角形_14-4" data-name="多角形 14" d="M13.227,1.882a1,1,0,0,1,1.8,0l3.175,6.626a1,1,0,0,0,.766.559l7.247,1a1,1,0,0,1,.558,1.71l-5.292,5.109a1,1,0,0,0-.29.9l1.3,7.259a1,1,0,0,1-1.46,1.056L14.6,22.614a1,1,0,0,0-.952,0l-6.43,3.478a1,1,0,0,1-1.46-1.056l1.3-7.259a1,1,0,0,0-.29-.9L1.481,11.773a1,1,0,0,1,.558-1.71l7.247-1a1,1,0,0,0,.766-.559Z" transform="translate(0)" fill="#eddd87"/>
        <text id="な" transform="translate(13.757 18.757)" fill="#202226" font-size="12" font-family="HiraginoSans-W6, Hiragino Sans"><tspan x="-6" y="0">な</tspan></text>
      </g>
      <g id="グループ_23" data-name="グループ 23" transform="translate(245.341 1419.756)">
        <path id="多角形_12-4" data-name="多角形 12" d="M10.543,1.391a3,3,0,0,1,3.642,0l8.88,6.784a3,3,0,0,1,1.045,3.27L20.659,22.613a3,3,0,0,1-2.866,2.114H6.936a3,3,0,0,1-2.866-2.114L.618,11.444a3,3,0,0,1,1.045-3.27Z" transform="translate(1.293 1.293)" fill="#d07d4c"/>
        <text id="ふ" transform="translate(13.757 18.757)" fill="#202226" font-size="12" font-family="HiraginoSans-W6, Hiragino Sans"><tspan x="-6" y="0">ふ</tspan></text>
      </g>
      <g id="グループ_24" data-name="グループ 24" transform="translate(278.144 1419.756)">
        <path id="多角形_14-5" data-name="多角形 14" d="M13.227,1.882a1,1,0,0,1,1.8,0l3.175,6.626a1,1,0,0,0,.766.559l7.247,1a1,1,0,0,1,.558,1.71l-5.292,5.109a1,1,0,0,0-.29.9l1.3,7.259a1,1,0,0,1-1.46,1.056L14.6,22.614a1,1,0,0,0-.952,0l-6.43,3.478a1,1,0,0,1-1.46-1.056l1.3-7.259a1,1,0,0,0-.29-.9L1.481,11.773a1,1,0,0,1,.558-1.71l7.247-1a1,1,0,0,0,.766-.559Z" fill="#5c7dd3"/>
        <text id="に" transform="translate(13.757 18.757)" fill="#202226" font-size="12" font-family="HiraginoSans-W6, Hiragino Sans"><tspan x="-6" y="0">に</tspan></text>
      </g>
      <g id="グループ_25" data-name="グループ 25" transform="translate(278.144 1449.422)">
        <path id="多角形_13-3" data-name="多角形 13" d="M17.682,0a3,3,0,0,1,2.6,1.5L25.009,9.66a3,3,0,0,1,0,3.009l-4.732,8.164a3,3,0,0,1-2.6,1.5H8.2a3,3,0,0,1-2.6-1.5L.872,12.669a3,3,0,0,1,0-3.009L5.6,1.5A3,3,0,0,1,8.2,0Z" transform="translate(1.293 2.586)" fill="#c58155"/>
        <text id="に-2" data-name="に" transform="translate(13.757 18.757)" fill="#202226" font-size="12" font-family="HiraginoSans-W6, Hiragino Sans"><tspan x="-6" y="0">に</tspan></text>
      </g>
    </g>
  </g>
</svg>
