<svg xmlns="http://www.w3.org/2000/svg" width="86.18" height="84.487" viewBox="0 0 86.18 84.487">
  <path id="多角形_6" data-name="多角形 6" d="M31.292,5.646a3,3,0,0,1,5.411,0l6.966,14.537a3,3,0,0,0,2.3,1.676l15.911,2.189a3,3,0,0,1,1.675,5.13L51.926,40.4a3,3,0,0,0-.869,2.687l2.854,15.942A3,3,0,0,1,49.53,62.2l-14.106-7.63a3,3,0,0,0-2.855,0L18.464,62.2a3,3,0,0,1-4.38-3.167l2.854-15.942a3,3,0,0,0-.869-2.687L4.443,29.178a3,3,0,0,1,1.675-5.13l15.911-2.189a3,3,0,0,0,2.3-1.676Z" transform="translate(22.286) rotate(20)" fill="#c1c1c1"/>
</svg>
